<?xml version="1.0" standalone="no"?>
<!DOCTYPE svg PUBLIC "-//W3C//DTD SVG 20010904//EN"
 "http://www.w3.org/TR/2001/REC-SVG-20010904/DTD/svg10.dtd">
<svg version="1.0" xmlns="http://www.w3.org/2000/svg"
 width="767.000000pt" height="767.000000pt" viewBox="0 0 767.000000 767.000000"
 preserveAspectRatio="xMidYMid meet">
<metadata>
Created by potrace 1.11, written by Peter Selinger 2001-2013
</metadata>
<g transform="translate(0.000000,767.000000) scale(0.100000,-0.100000)"
fill="#000000" stroke="none">
<path d="M3785 7646 c-38 -21 -211 -113 -285 -152 -19 -10 -37 -19 -40 -19 -3
-1 -36 -16 -75 -34 -130 -61 -496 -197 -583 -216 -13 -3 -42 -12 -65 -20 -22
-8 -44 -12 -49 -9 -4 3 -8 0 -8 -7 0 -7 -3 -10 -6 -7 -3 4 -20 2 -37 -3 -18
-6 -43 -12 -57 -15 -14 -3 -33 -7 -42 -10 -10 -3 -28 -7 -40 -10 -13 -2 -33
-6 -45 -9 -54 -12 -71 -16 -128 -26 -33 -6 -73 -13 -90 -15 -16 -2 -41 -6 -55
-8 -22 -5 -80 -12 -165 -22 -99 -11 -466 -22 -495 -14 -3 0 -36 3 -74 5 -38 3
-86 7 -108 10 -21 3 -57 7 -80 10 -24 3 -67 11 -97 16 -30 6 -64 12 -75 14
-12 1 -34 5 -51 8 -16 3 -73 13 -125 22 -52 9 -104 18 -115 19 -11 2 -36 7
-55 10 -59 10 -84 15 -107 20 -17 3 -23 0 -24 -12 -1 -22 -2 -30 -33 -148 -15
-56 -28 -110 -31 -120 -2 -11 -22 -93 -44 -183 -23 -91 -43 -176 -46 -190 -9
-49 -44 -256 -49 -291 -3 -19 -7 -48 -10 -65 -17 -119 -35 -293 -52 -525 -10
-133 -11 -813 -1 -912 4 -38 9 -97 12 -133 3 -36 7 -80 10 -98 2 -18 7 -54 9
-82 12 -109 18 -155 37 -275 23 -147 29 -179 44 -250 7 -31 14 -67 20 -102 3
-15 9 -38 14 -51 6 -14 8 -27 5 -29 -2 -3 2 -24 10 -46 9 -23 13 -42 11 -42
-2 0 1 -15 6 -32 6 -18 12 -40 14 -48 6 -20 25 -91 30 -110 2 -8 4 -15 5 -15
1 0 3 -9 5 -19 2 -10 11 -42 20 -70 10 -28 18 -55 20 -61 1 -5 5 -17 8 -25 3
-8 15 -42 25 -75 21 -64 77 -217 91 -250 5 -11 20 -47 35 -81 14 -33 33 -78
43 -100 9 -21 17 -41 18 -44 2 -15 144 -293 186 -366 27 -47 49 -90 49 -95 0
-5 5 -9 10 -9 6 0 10 -6 10 -13 0 -12 211 -338 254 -392 14 -18 104 -135 123
-160 17 -22 108 -131 122 -147 9 -9 39 -42 66 -74 146 -168 543 -536 634 -588
9 -5 18 -12 21 -16 7 -10 185 -139 255 -185 33 -22 62 -42 65 -45 12 -13 171
-110 180 -110 6 0 10 -4 10 -10 0 -5 4 -10 10 -10 5 0 39 -18 75 -40 36 -22
69 -40 74 -40 5 0 14 -7 21 -15 7 -9 15 -13 18 -11 2 3 21 -5 41 -18 43 -27
266 -138 371 -184 41 -19 83 -38 94 -44 10 -5 35 -16 55 -23 20 -7 74 -30 121
-49 46 -20 90 -36 97 -36 7 0 13 -4 13 -10 0 -16 26 -12 65 10 19 11 38 19 40
19 6 -1 169 67 278 115 31 14 59 26 62 26 11 1 380 191 389 200 6 6 18 10 28
10 10 0 18 4 18 8 0 5 27 23 60 40 129 69 414 257 540 355 9 7 42 32 75 56 33
25 62 47 65 50 3 3 32 28 65 56 245 204 447 407 660 664 11 13 26 29 33 36 6
8 12 16 12 19 0 3 8 15 18 25 42 47 202 268 202 280 0 5 3 11 8 13 8 3 79 114
162 252 74 126 196 367 263 521 56 131 130 319 137 350 1 6 9 26 17 45 8 19
16 42 18 50 2 8 17 58 33 110 28 88 52 171 56 195 1 6 5 16 9 23 5 6 6 12 3
12 -3 0 -1 11 4 25 5 14 12 36 14 48 2 12 14 61 25 109 11 47 23 101 26 120 3
18 8 42 12 53 3 11 7 31 9 45 1 14 7 48 12 75 6 28 13 68 16 90 4 23 9 52 11
65 3 14 8 50 11 80 8 67 12 95 14 95 1 0 3 18 5 40 2 22 6 67 9 100 26 249 31
374 29 735 -2 351 -5 453 -16 550 -3 25 -9 81 -12 125 -4 44 -9 96 -11 115 -3
19 -7 52 -9 73 -2 21 -7 55 -10 75 -4 21 -8 53 -11 72 -2 19 -6 46 -8 60 -3
14 -8 45 -12 70 -3 24 -7 47 -9 50 -2 4 -7 29 -11 56 -13 96 -171 709 -182
707 -6 -2 -28 -5 -49 -8 -21 -3 -51 -7 -68 -11 -51 -10 -129 -24 -160 -28 -16
-3 -39 -7 -50 -9 -11 -3 -40 -8 -65 -12 -47 -8 -49 -8 -120 -21 -25 -4 -49 -8
-55 -9 -5 0 -30 -4 -55 -8 -102 -17 -287 -30 -420 -30 -85 0 -303 11 -350 18
-14 2 -47 6 -75 9 -27 4 -68 9 -90 12 -22 4 -49 8 -60 10 -11 1 -20 3 -20 4 0
1 -13 3 -30 5 -35 3 -174 31 -225 45 -19 5 -64 16 -100 25 -36 9 -69 17 -75
19 -76 20 -123 35 -250 77 -82 27 -159 53 -170 58 -11 5 -40 17 -65 26 -25 9
-56 22 -70 28 -14 5 -30 11 -36 12 -18 4 -348 168 -452 224 -51 28 -94 51 -95
50 -1 0 -20 -10 -42 -23z m131 -715 c84 -41 152 -72 169 -77 6 -1 33 -13 60
-25 28 -13 52 -24 55 -24 3 -1 18 -7 33 -13 16 -7 30 -12 32 -12 2 0 16 -5 32
-12 15 -6 30 -12 33 -13 3 -1 12 -5 20 -8 51 -22 429 -141 480 -151 8 -2 22
-6 30 -9 26 -10 220 -54 317 -72 16 -3 37 -7 48 -9 11 -2 54 -9 95 -16 41 -6
86 -14 100 -16 33 -6 151 -18 310 -31 154 -12 560 -5 646 11 16 3 116 16 164
20 9 1 21 5 28 10 8 5 15 -2 22 -19 5 -14 9 -29 8 -33 -1 -4 1 -14 4 -22 3 -8
11 -44 17 -80 6 -36 13 -78 16 -95 3 -16 8 -46 10 -65 3 -19 8 -51 11 -70 4
-19 8 -53 10 -75 2 -22 6 -56 9 -75 2 -19 7 -66 10 -105 3 -38 8 -83 10 -100
24 -184 24 -869 0 -1080 -3 -22 -7 -67 -10 -100 -10 -111 -17 -172 -30 -246
-2 -13 -7 -42 -10 -64 -4 -22 -8 -51 -11 -65 -2 -14 -6 -41 -9 -60 -3 -19 -14
-78 -25 -130 -28 -135 -30 -143 -36 -162 -3 -9 -6 -25 -8 -35 -8 -36 -47 -188
-53 -203 -3 -8 -7 -22 -9 -31 -2 -9 -20 -65 -40 -125 -19 -60 -37 -113 -38
-119 -2 -5 -8 -23 -15 -40 -6 -16 -19 -50 -28 -75 -9 -25 -20 -49 -25 -55 -4
-5 -8 -15 -8 -21 0 -7 -13 -42 -30 -77 -16 -36 -30 -68 -30 -71 0 -22 -204
-414 -251 -483 -16 -23 -29 -44 -29 -48 0 -13 -181 -273 -264 -379 -114 -146
-186 -226 -346 -386 -130 -130 -207 -201 -317 -290 -10 -8 -32 -26 -49 -40
-17 -14 -43 -34 -59 -45 -15 -11 -42 -32 -59 -46 -17 -14 -85 -61 -151 -105
-66 -43 -121 -82 -123 -86 -2 -5 -7 -8 -12 -8 -4 0 -50 -25 -101 -56 -52 -31
-119 -71 -149 -89 -61 -36 -424 -215 -437 -215 -4 -1 -30 -11 -57 -23 -47 -23
-50 -23 -85 -6 -20 9 -65 29 -101 45 -85 37 -427 210 -459 233 -14 10 -33 21
-41 24 -8 4 -24 13 -34 19 -11 7 -63 40 -115 73 -154 97 -373 253 -472 339
-20 17 -67 58 -105 90 -86 75 -306 295 -399 400 -39 44 -110 131 -158 195 -48
64 -93 123 -100 132 -15 19 -21 29 -74 110 -23 35 -45 69 -50 75 -28 35 -169
289 -220 394 -63 130 -113 238 -113 245 0 3 -8 24 -19 48 -19 42 -65 157 -67
167 0 3 -4 12 -7 20 -8 19 -87 260 -92 280 -2 8 -11 40 -20 70 -8 30 -17 64
-20 75 -2 11 -14 58 -25 105 -12 47 -23 96 -25 110 -2 14 -7 35 -10 48 -9 40
-25 121 -30 157 -2 11 -6 36 -10 55 -11 61 -20 119 -29 195 -24 192 -28 224
-31 282 -2 32 -4 58 -5 58 -6 0 -13 250 -13 465 -1 227 4 390 17 540 15 168
18 206 22 224 2 12 6 44 9 71 2 28 7 61 10 74 2 14 7 47 10 75 3 28 10 69 15
91 5 22 11 56 14 75 3 19 8 46 12 60 5 22 7 37 13 74 0 5 25 5 54 1 28 -4 68
-9 87 -11 19 -3 55 -7 80 -9 25 -2 45 -5 45 -5 0 -5 202 -13 335 -13 165 -1
375 11 497 28 26 4 64 9 83 11 19 2 60 9 90 15 30 6 71 13 90 15 120 12 662
154 745 195 11 5 31 11 44 14 12 2 29 9 37 16 8 6 14 9 14 6 0 -5 148 50 230
86 14 6 27 11 30 12 20 6 101 43 185 84 55 27 105 50 111 50 7 1 47 -16 90
-38z"/>
<path d="M4647 5372 l-177 -177 368 -368 367 -367 179 179 179 180 -366 365
c-201 201 -367 366 -369 366 -2 0 -83 -80 -181 -178z"/>
<path d="M3550 4275 l-725 -725 60 -60 c296 -299 667 -665 675 -665 6 0 334
324 730 719 600 600 717 722 707 734 -16 20 -689 693 -708 709 -13 10 -137
-110 -739 -712z"/>
<path d="M2636 3323 c-5 -18 -40 -197 -51 -262 -3 -19 -7 -37 -9 -40 -2 -3 -7
-28 -10 -55 -4 -27 -9 -52 -11 -55 -1 -3 -6 -22 -9 -41 -6 -39 -32 -172 -41
-210 -3 -14 -8 -36 -10 -50 -2 -14 -7 -36 -10 -50 -13 -55 -17 -112 -6 -106 5
4 27 9 48 11 21 3 58 10 83 16 56 13 68 16 114 23 19 3 57 11 83 17 27 6 59
13 73 15 21 4 87 17 200 39 14 3 39 8 55 10 17 3 37 8 45 10 18 5 74 16 150
30 8 1 14 8 13 14 -2 9 -692 701 -699 701 -2 0 -5 -8 -8 -17z"/>
</g>
</svg>
