<svg xmlns="http://www.w3.org/2000/svg" viewBox="0 0 421.62 153"><defs><style>.a{fill:#0d6efd;}.b{fill:#212529;}</style></defs><path class="a" d="M136.48,22.15l-2.72-11.07L122.53,13a57.71,57.71,0,0,1-9.81.82c-19.75,0-37.1-9.21-37.24-9.28L69.64,1.42,63.81,4.55c-.17.09-17.52,9.3-37.28,9.3a57.68,57.68,0,0,1-9.8-.82L5.5,11.08,2.77,22.15A137.65,137.65,0,0,0,1.68,73.26C8,110.37,29.87,137.74,64.9,152.43l4.73,2,4.72-2c35-14.69,56.9-42.06,63.23-79.17A137.53,137.53,0,0,0,136.48,22.15Zm-66.85,119c-75.77-31.77-55-116.09-55-116.09,28.1,4.89,55-9.77,55-9.77s26.88,14.66,55,9.77C124.62,25.07,145.39,109.39,69.63,141.16Z" transform="translate(0.18 -1.42)"/><rect class="a" x="88.24" y="44.19" width="10.11" height="20.74" transform="translate(-11.07 80.54) rotate(-45)"/><rect class="a" x="50.91" y="66.1" width="40.96" height="20.74" transform="translate(-32.98 71.46) rotate(-45)"/><polygon class="a" points="46.08 86.25 44.34 95.16 42.59 104.08 51.5 102.3 60.41 100.52 53.24 93.38 46.08 86.25"/><path class="b" d="M198.39,64.92l-8.73,9.4V97.58H172.89V16.16h16.77V53.07L197,43l20.75-26.79h20.63L209.51,52.34l29.75,45.24h-20Z" transform="translate(0.18 -1.42)"/><path class="b" d="M279.58,97.58A17.63,17.63,0,0,1,278,92.16a19.58,19.58,0,0,1-15.27,6.54q-8.9,0-14.73-5.15a16.52,16.52,0,0,1-5.85-13q0-9.61,7.13-14.76t20.61-5.2h7.43V57.15a10,10,0,0,0-2.15-6.71c-1.43-1.68-3.7-2.51-6.79-2.51a9.63,9.63,0,0,0-6.4,2,6.66,6.66,0,0,0-2.32,5.37H243.46a16.25,16.25,0,0,1,3.24-9.73,21.48,21.48,0,0,1,9.17-7A33.53,33.53,0,0,1,269.18,36q11.18,0,17.75,5.62t6.57,15.8V83.6q.06,8.61,2.41,13v1ZM266.21,86.34a13.93,13.93,0,0,0,6.6-1.59,10.41,10.41,0,0,0,4.47-4.28V70.07h-6q-12.13,0-12.92,8.39l-.06,1a6.45,6.45,0,0,0,2.13,5A8.21,8.21,0,0,0,266.21,86.34Z" transform="translate(0.18 -1.42)"/><path class="b" d="M323,97.58H306.75V11.69H323Z" transform="translate(0.18 -1.42)"/><path class="b" d="M353.33,97.58H337.12V11.69h16.21Z" transform="translate(0.18 -1.42)"/><path class="b" d="M364.12,66.77a35.92,35.92,0,0,1,3.47-16,25.35,25.35,0,0,1,10-10.9A29.15,29.15,0,0,1,392.7,36q12.24,0,20,7.49t8.64,20.36l.11,4.13q0,13.94-7.77,22.34T392.81,98.7q-13.08,0-20.89-8.39t-7.8-22.81Zm16.16,1.15q0,8.63,3.25,13.19a11.65,11.65,0,0,0,18.45,0q3.3-4.5,3.3-14.42,0-8.46-3.3-13.1A10.72,10.72,0,0,0,392.7,49a10.55,10.55,0,0,0-9.17,4.62Q380.29,58.23,380.28,67.92Z" transform="translate(0.18 -1.42)"/><path class="b" d="M189.84,118.29h-9.7v26.3h-2.4v-26.3h-9.68v-2h21.78Z" transform="translate(0.18 -1.42)"/><path class="b" d="M222,131H208.76v11.56H224v2H206.37V116.27h17.52v2H208.76V129H222Z" transform="translate(0.18 -1.42)"/><path class="b" d="M256.27,136.63H243.41l-2.91,8H238l10.71-28.32H251l10.72,28.32h-2.49Zm-12.12-2h11.36l-5.68-15.42Z" transform="translate(0.18 -1.42)"/><path class="b" d="M297.65,135.76a10.19,10.19,0,0,1-3.19,6.85,10.6,10.6,0,0,1-7.23,2.37,9.9,9.9,0,0,1-5.57-1.58,10.2,10.2,0,0,1-3.75-4.46,15.9,15.9,0,0,1-1.34-6.6v-3.68a16,16,0,0,1,1.32-6.69,10.19,10.19,0,0,1,3.8-4.51,10.45,10.45,0,0,1,5.71-1.58,9.45,9.45,0,0,1,10.25,9.24h-2.41q-.89-7.22-7.84-7.22a7.41,7.41,0,0,0-6.13,2.88q-2.29,2.88-2.29,8v3.46a12.57,12.57,0,0,0,2.23,7.83,7.18,7.18,0,0,0,6,2.92,8,8,0,0,0,5.66-1.8,8.64,8.64,0,0,0,2.35-5.4Z" transform="translate(0.18 -1.42)"/><path class="b" d="M336.41,144.59H334V131H317.82v13.58h-2.4V116.27h2.4V129H334V116.27h2.41Z" transform="translate(0.18 -1.42)"/><path class="b" d="M371.2,131H358v11.56h15.24v2H355.56V116.27h17.53v2H358V129H371.2Z" transform="translate(0.18 -1.42)"/><path class="b" d="M400.76,132.78h-8.23v11.81h-2.41V116.27h9.2a10.52,10.52,0,0,1,7.08,2.19,8.37,8.37,0,0,1,1,10.94,8.12,8.12,0,0,1-4.28,2.88l7.08,12.06v.25H407.6Zm-8.23-2h7.33a6.82,6.82,0,0,0,4.85-1.71,6.47,6.47,0,0,0-.08-9.1,7.88,7.88,0,0,0-5.35-1.66h-6.75Z" transform="translate(0.18 -1.42)"/></svg>